# xmcd
#
# Track frame offsets:
#	151
#	13609
#	25115
#	36437
#	50341
#	62351
#	74191
#	84327
#	97008
#	110436
#	121416
#
# Disc length: 1773 seconds
#
# Revision: 0
# Processed by: cddbd v1.5.1PL2 Copyright (c) Steve Scherf et al.
# Submitted via: dBpowerAMP V4.0
#
DISCID=9006eb0b
DTITLE=Page, Patti - American Music Legends: Patti Page
DYEAR=2004
DGENRE=Pop
TTITLE0=Tennessee Waltz
TTITLE1=You Belong to Me
TTITLE2=With My Eyes Wide Open I'm Dreaming
TTITLE3=All My Love
TTITLE4=Mocking Bird Hill
TTITLE5=I Cried
TTITLE6=Poor Man's Roses (or a Rich Man's Gold)
TTITLE7=Changing Partners
TTITLE8=Allegheny Moon
TTITLE9=Doggie in the Window
TTITLE10=Hushg, Hush Sweet Charlotte
EXTD=
EXTT0=
EXTT1=
EXTT2=
EXTT3=
EXTT4=
EXTT5=
EXTT6=
EXTT7=
EXTT8=
EXTT9=
EXTT10=
PLAYORDER=
